<svg width="321" height="168" viewBox="0 0 321 168" fill="none" xmlns="http://www.w3.org/2000/svg">
<ellipse cx="57.336" cy="84.9523" rx="8.53195" ry="14.6483" transform="rotate(0.975393 57.336 84.9523)" fill="#D00013"/>
<path d="M55.348 94.1693C53.8908 95.4394 51.5323 95.1184 50.0804 93.4524C48.6284 91.7865 48.6326 89.4063 50.0899 88.1362C51.5472 86.8662 53.9056 87.1871 55.3576 88.8531C56.8096 90.519 56.8053 92.8992 55.348 94.1693Z" fill="#F33A41"/>
<path d="M33.3746 130.1C33.3746 128 32.5496 126.575 30.8996 125.825C29.2996 125.025 26.5996 124.625 22.7996 124.625V136.1C25.1496 136.1 27.0496 135.925 28.4996 135.575C29.9996 135.225 31.1746 134.625 32.0246 133.775C32.9246 132.875 33.3746 131.65 33.3746 130.1ZM34.3496 150.125C34.3496 148.475 33.9246 147.2 33.0746 146.3C32.2246 145.4 30.9996 144.775 29.3996 144.425C27.7996 144.025 25.5996 143.825 22.7996 143.825V156.8C26.6996 156.8 29.5996 156.325 31.4996 155.375C33.3996 154.375 34.3496 152.625 34.3496 150.125ZM43.5746 140.3C48.2246 143.05 50.5496 146.725 50.5496 151.325C50.5496 153.325 50.1496 155.25 49.3496 157.1C48.5996 158.9 47.4496 160.55 45.8996 162.05C44.3996 163.55 42.3996 164.75 39.8996 165.65C37.3996 166.5 34.5746 166.925 31.4246 166.925H14.0246C10.9746 166.925 8.77461 166.15 7.42461 164.6C6.12461 163.05 5.47461 160.275 5.47461 156.275V124.55C5.47461 122.85 5.77461 121.35 6.37461 120.05C6.97461 118.75 7.92461 117.7 9.22461 116.9C10.5746 116.1 12.1746 115.7 14.0246 115.7H31.1996C36.1996 115.75 40.3496 117.125 43.6496 119.825C46.9996 122.475 48.6746 125.9 48.6746 130.1C48.6746 131.45 48.5496 132.65 48.2996 133.7C48.0996 134.7 47.7746 135.6 47.3246 136.4C46.8746 137.2 46.3496 137.9 45.7496 138.5C45.1496 139.1 44.4246 139.7 43.5746 140.3Z" fill="#D00013"/>
<path d="M90.3295 136.55C92.9795 136.55 94.8295 136.975 95.8795 137.825C96.9795 138.675 97.5295 140.125 97.5295 142.175C97.5295 143.875 96.8795 145.1 95.5795 145.85C94.3295 146.55 92.3545 146.9 89.6545 146.9H77.5045V154.85L93.7795 154.925C96.5795 154.925 98.5795 155.35 99.7795 156.2C101.029 157 101.654 158.45 101.654 160.55C101.654 162.95 100.929 164.625 99.4795 165.575C98.0795 166.525 95.9295 167 93.0295 167H68.7295C65.7795 167 63.6045 166.225 62.2045 164.675C60.8545 163.075 60.1795 160.275 60.1795 156.275V124.625C60.1795 118.625 63.0295 115.625 68.7295 115.625H93.0295C95.9295 115.625 98.0795 116.075 99.4795 116.975C100.929 117.875 101.654 119.5 101.654 121.85C101.654 124.05 101.029 125.6 99.7795 126.5C98.5795 127.35 96.5795 127.775 93.7795 127.775H77.4295V136.55H90.3295Z" fill="#D00013"/>
<path d="M132.245 127.85C130.095 127.85 128.495 128.475 127.445 129.725C126.445 130.975 125.945 133.2 125.945 136.4V145.25H138.395V136.25C138.395 134.15 138.145 132.475 137.645 131.225C137.145 129.925 136.445 129.05 135.545 128.6C134.695 128.1 133.595 127.85 132.245 127.85ZM138.395 155.6H125.945V159.575C125.945 162.125 125.27 164 123.92 165.2C122.57 166.4 120.245 167 116.945 167C115.545 167 114.395 166.8 113.495 166.4C112.595 166 111.795 165.325 111.095 164.375C110.445 163.425 109.945 162.05 109.595 160.25C109.295 158.4 109.045 156.2 108.845 153.65C108.695 151.05 108.62 147.775 108.62 143.825C108.62 140.375 108.97 137.225 109.67 134.375C110.42 131.475 111.395 129.025 112.595 127.025C113.845 125.025 115.245 123.275 116.795 121.775C118.345 120.225 120.02 119.025 121.82 118.175C123.67 117.325 125.445 116.7 127.145 116.3C128.895 115.85 130.645 115.625 132.395 115.625C134.495 115.625 136.57 115.925 138.62 116.525C140.67 117.075 142.745 118.05 144.845 119.45C146.945 120.85 148.77 122.6 150.32 124.7C151.92 126.75 153.22 129.425 154.22 132.725C155.22 136.025 155.72 139.725 155.72 143.825C155.72 150.425 155.47 155.325 154.97 158.525C154.52 161.675 153.72 163.875 152.57 165.125C151.47 166.375 149.745 167 147.395 167C144.095 167 141.77 166.4 140.42 165.2C139.07 164 138.395 162.125 138.395 159.575V155.6Z" fill="#D00013"/>
<path d="M192.089 130.55C192.089 128.15 191.214 126.5 189.464 125.6C187.714 124.7 184.764 124.25 180.614 124.25V137.225C184.514 137.225 187.389 136.75 189.239 135.8C191.139 134.8 192.089 133.05 192.089 130.55ZM180.614 155.75C180.614 163.25 177.689 167 171.839 167C168.889 167 166.714 166.225 165.314 164.675C163.964 163.075 163.289 160.275 163.289 156.275V124.625C163.289 121.725 164.064 119.525 165.614 118.025C167.214 116.475 169.289 115.7 171.839 115.7H187.589C193.739 115.7 198.714 117.15 202.514 120.05C206.314 122.9 208.214 126.575 208.214 131.075C208.214 134.475 207.489 137.15 206.039 139.1C204.639 141 202.364 142.4 199.214 143.3C201.614 143.45 203.839 144.625 205.889 146.825C207.939 148.975 208.964 151.675 208.964 154.925C208.964 158.225 208.639 160.775 207.989 162.575C207.389 164.325 206.514 165.5 205.364 166.1C204.214 166.7 202.589 167 200.489 167C197.539 167 195.364 166.4 193.964 165.2C192.614 163.95 191.939 162.075 191.939 159.575C191.939 156.475 191.639 154.1 191.039 152.45C190.439 150.75 189.664 149.65 188.714 149.15C187.764 148.65 186.439 148.4 184.739 148.4L180.614 148.475V155.75Z" fill="#D00013"/>
<path d="M238.418 115.1C244.368 115.1 249.443 116.325 253.643 118.775C257.843 121.225 259.943 123.825 259.943 126.575C259.943 127.325 259.768 127.975 259.418 128.525C259.118 129.025 258.718 129.4 258.218 129.65C257.768 129.85 257.268 129.95 256.718 129.95C255.818 129.95 254.468 129.5 252.668 128.6C250.868 127.65 248.868 126.725 246.668 125.825C244.468 124.875 242.443 124.4 240.593 124.4C237.643 124.4 236.168 125.6 236.168 128C236.168 128.75 236.393 129.475 236.843 130.175C237.343 130.825 238.118 131.525 239.168 132.275C240.218 132.975 241.243 133.6 242.243 134.15C243.243 134.7 244.618 135.45 246.368 136.4C248.118 137.3 249.593 138.1 250.793 138.8C254.643 141 257.343 143.1 258.893 145.1C260.443 147.1 261.218 149.4 261.218 152C261.218 162.35 254.243 167.525 240.293 167.525C237.543 167.525 234.868 167.25 232.268 166.7C229.718 166.15 227.468 165.425 225.518 164.525C223.618 163.625 221.918 162.625 220.418 161.525C218.968 160.425 217.868 159.3 217.118 158.15C216.368 157 215.993 155.925 215.993 154.925C215.993 153.825 216.343 152.9 217.043 152.15C217.793 151.35 218.868 150.95 220.268 150.95C221.318 150.95 223.843 151.625 227.843 152.975C231.843 154.275 235.068 154.925 237.518 154.925C239.768 154.925 240.893 154.15 240.893 152.6C240.893 152.15 240.793 151.75 240.593 151.4C240.443 151 240.143 150.625 239.693 150.275C239.293 149.875 238.818 149.525 238.268 149.225C237.768 148.875 237.043 148.45 236.093 147.95C235.193 147.45 234.268 146.95 233.318 146.45C232.418 145.95 231.218 145.3 229.718 144.5C228.218 143.7 226.768 142.9 225.368 142.1C223.518 141.05 221.918 139.75 220.568 138.2C219.268 136.65 218.318 135.125 217.718 133.625C217.118 132.075 216.818 130.65 216.818 129.35C216.818 125.15 218.693 121.725 222.443 119.075C226.193 116.425 231.518 115.1 238.418 115.1Z" fill="#D00013"/>
<path d="M139.444 57.2057C137.986 58.4758 134.792 57.1958 132.309 54.3467C129.826 51.4975 128.994 48.1583 130.451 46.8882C131.908 45.6181 135.103 46.8982 137.586 49.7473C140.069 52.5964 140.901 55.9357 139.444 57.2057Z" fill="white"/>
<path d="M208.428 57.2057C206.971 58.4758 203.776 57.1958 201.293 54.3467C198.81 51.4975 197.978 48.1583 199.436 46.8882C200.893 45.6181 204.087 46.8982 206.57 49.7473C209.054 52.5964 209.885 55.9357 208.428 57.2057Z" fill="white"/>
<path d="M33.9012 59.225C33.9012 57.675 32.8762 56.9 30.8262 56.9C28.7262 56.9 26.9262 58.075 25.4262 60.425C23.9262 62.775 23.1762 66.7001 23.1762 72.2001C23.1762 77.3001 24.0262 81.0251 25.7262 83.3751C27.4762 85.6751 29.5262 86.8251 31.8762 86.8251C32.6262 86.8251 33.3012 86.6751 33.9012 86.3751C34.5512 86.0751 35.0762 85.625 35.4762 85.025C35.8762 84.425 36.0762 83.7001 36.0762 82.8501C34.8762 82.8501 33.8262 82.625 32.9262 82.175C32.0762 81.725 31.4512 81.175 31.0512 80.525C30.6512 79.825 30.4512 79.075 30.4512 78.275C30.4512 76.475 30.9262 75.125 31.8762 74.225C32.8262 73.325 34.4512 72.8751 36.7512 72.8751H45.8262C48.7262 72.8751 50.9762 73.5001 52.5762 74.7501C54.1762 76.0001 54.9762 78.2001 54.9762 81.3501C54.9762 85.9501 52.7762 89.9751 48.3762 93.4251C43.9762 96.8251 38.7512 98.5251 32.7012 98.5251C27.1512 98.5251 22.2012 97.5251 17.8512 95.5251C13.5512 93.5251 10.1262 90.5501 7.57617 86.6001C5.07617 82.6001 3.82617 77.8751 3.82617 72.4251C3.82617 64.3251 6.27617 57.9251 11.1762 53.2251C16.0762 48.525 22.5762 46.175 30.6762 46.175C33.8762 46.175 36.7512 46.425 39.3012 46.925C41.8512 47.375 43.9512 48 45.6012 48.8001C47.3012 49.6 48.7012 50.575 49.8012 51.725C50.9512 52.825 51.7512 54 52.2012 55.25C52.7012 56.5 52.9512 57.8001 52.9512 59.1501C52.9512 60.1001 52.8012 61.025 52.5012 61.925C52.2012 62.775 51.6512 63.6501 50.8512 64.5501C50.1012 65.4001 48.9262 66.1 47.3262 66.65C45.7262 67.2 43.8012 67.475 41.5512 67.475C38.2512 67.475 36.1512 67.0001 35.2512 66.0501C34.3512 65.0501 33.9012 62.7751 33.9012 59.225Z" fill="#D00013"/>
<path d="M109.218 55.6251V77.975C109.218 85.2751 107.443 90.5251 103.893 93.7251C100.393 96.8751 94.4682 98.4501 86.1182 98.4501C78.1682 98.4501 72.3182 96.7501 68.5682 93.3501C64.8682 89.9501 63.0182 84.8251 63.0182 77.975V55.6251C63.0182 52.975 63.7932 50.8251 65.3432 49.1751C66.9432 47.475 68.9432 46.625 71.3432 46.625C74.2932 46.625 76.5182 47.175 78.0182 48.275C79.5682 49.375 80.3432 51.6001 80.3432 54.9501V79.4C80.3932 81 80.6432 82.2751 81.0932 83.2251C81.5932 84.1751 82.2432 84.8501 83.0432 85.2501C83.8432 85.6001 84.8682 85.7751 86.1182 85.7751C87.3682 85.7751 88.3932 85.6251 89.1932 85.3251C89.9932 85.0251 90.5682 84.55 90.9182 83.9C91.3182 83.25 91.5682 82.6001 91.6682 81.9501C91.8182 81.3001 91.8932 80.45 91.8932 79.4V54.875C91.8932 53.175 92.0932 51.7501 92.4932 50.6C92.9432 49.45 93.5932 48.6 94.4432 48.0501C95.3432 47.5 96.2432 47.125 97.1432 46.925C98.0932 46.725 99.2182 46.625 100.518 46.625C103.418 46.625 105.593 47.325 107.043 48.7251C108.493 50.1251 109.218 52.4251 109.218 55.6251Z" fill="#D00013"/>
<path d="M163.241 70.5501L153.866 89.7501C153.066 91.3501 152.216 92.5001 151.316 93.2001C150.416 93.8501 149.341 94.1751 148.091 94.1751C146.491 94.1751 145.141 93.6251 144.041 92.5251C142.941 91.3751 141.516 89.3251 139.766 86.3751L131.066 70.5501V91.7751C131.066 93.9251 130.566 95.5001 129.566 96.5001C128.616 97.5001 127.166 98.0001 125.216 98.0001C123.016 98.0001 121.416 97.5251 120.416 96.5751C119.416 95.5751 118.916 93.65 118.916 90.8V58.1001C118.916 54.2501 119.791 51.35 121.541 49.4001C123.291 47.45 126.241 46.475 130.391 46.475C131.941 46.475 133.291 46.75 134.441 47.3C135.591 47.8 136.441 48.4001 136.991 49.1C137.591 49.75 138.166 50.575 138.716 51.5751L148.766 73.5501L159.416 51.9501C161.266 48.35 164.591 46.55 169.391 46.55C171.641 46.55 173.566 46.95 175.166 47.75C176.766 48.5 178.016 49.7501 178.916 51.5001C179.866 53.2001 180.341 55.35 180.341 57.95V90.5751C180.291 95.5251 177.166 98.0001 170.966 98.0001C168.716 98.0001 166.866 97.4001 165.416 96.2001C164.016 94.9501 163.291 92.9501 163.241 90.2001V70.5501Z" fill="#D00013"/>
<path d="M234.432 70.5501L225.057 89.7501C224.257 91.3501 223.407 92.5001 222.507 93.2001C221.607 93.8501 220.532 94.1751 219.282 94.1751C217.682 94.1751 216.332 93.6251 215.232 92.5251C214.132 91.3751 212.707 89.3251 210.957 86.3751L202.257 70.5501V91.7751C202.257 93.9251 201.757 95.5001 200.757 96.5001C199.807 97.5001 198.357 98.0001 196.407 98.0001C194.207 98.0001 192.607 97.5251 191.607 96.5751C190.607 95.5751 190.107 93.65 190.107 90.8V58.1001C190.107 54.2501 190.982 51.35 192.732 49.4001C194.482 47.45 197.432 46.475 201.582 46.475C203.132 46.475 204.482 46.75 205.632 47.3C206.782 47.8 207.632 48.4001 208.182 49.1C208.782 49.75 209.357 50.575 209.907 51.5751L219.957 73.5501L230.607 51.9501C232.457 48.35 235.782 46.55 240.582 46.55C242.832 46.55 244.757 46.95 246.357 47.75C247.957 48.5 249.207 49.7501 250.107 51.5001C251.057 53.2001 251.532 55.35 251.532 57.95V90.5751C251.482 95.5251 248.357 98.0001 242.157 98.0001C239.907 98.0001 238.057 97.4001 236.607 96.2001C235.207 94.9501 234.482 92.9501 234.432 90.2001V70.5501Z" fill="#D00013"/>
<path d="M290.28 86.7501C290.28 90.8001 289.555 93.7001 288.105 95.4501C286.655 97.1501 284.43 98.0001 281.43 98.0001C278.53 98.0001 276.405 97.2251 275.055 95.6751C273.705 94.0751 273.005 91.275 272.955 87.275L272.88 75.1251L261.33 61.6251C259.23 59.225 258.18 57.15 258.18 55.4C258.18 52.65 259.23 50.475 261.33 48.875C263.33 47.375 265.105 46.625 266.655 46.625C268.805 46.625 270.73 47.6 272.43 49.55L281.58 60.2001L289.23 51.275C291.78 48.225 294.505 46.7001 297.405 46.7001C299.555 46.7001 301.23 47.3001 302.43 48.5C304.48 50.5501 305.505 52.525 305.505 54.425C305.505 55.4751 305.155 56.6001 304.455 57.8001C303.755 58.9501 302.63 60.4501 301.08 62.3001L290.28 75.5001V86.7501Z" fill="#D00013"/>
<mask id="mask0" mask-type="alpha" maskUnits="userSpaceOnUse" x="0" y="9" width="308" height="49">
<path d="M0.513672 9.02979H307.74V57.3895H0.513672V9.02979Z" fill="#FFA4A4"/>
</mask>
<g mask="url(#mask0)">
<path d="M33.5552 57.5815C33.5552 56.0383 32.5347 55.2666 30.4936 55.2666C28.4028 55.2666 26.6106 56.4365 25.1172 58.7763C23.6237 61.116 22.877 65.0239 22.877 70.4999C22.877 75.5777 23.7233 79.2865 25.4159 81.6262C27.1582 83.9162 29.1993 85.0612 31.5391 85.0612C32.2858 85.0612 32.9579 84.9119 33.5552 84.6132C34.2024 84.3145 34.7251 83.8664 35.1234 83.269C35.5216 82.6717 35.7208 81.9498 35.7208 81.1035C34.526 81.1035 33.4806 80.8795 32.5845 80.4315C31.7382 79.9834 31.1159 79.4358 30.7177 78.7887C30.3194 78.0917 30.1203 77.345 30.1203 76.5485C30.1203 74.7563 30.5932 73.4122 31.5391 72.5161C32.4849 71.62 34.1028 71.172 36.3928 71.172H45.4283C48.3156 71.172 50.5558 71.7943 52.1488 73.0388C53.7419 74.2834 54.5384 76.4738 54.5384 79.6101C54.5384 84.19 52.348 88.1975 47.9672 91.6324C43.5863 95.0176 38.3841 96.7102 32.3605 96.7102C26.8347 96.7102 21.9062 95.7146 17.5752 93.7233C13.2939 91.732 9.88387 88.77 7.34498 84.8372C4.85588 80.8546 3.61133 76.1502 3.61133 70.724C3.61133 62.6593 6.05065 56.2872 10.9293 51.6077C15.8079 46.9281 22.2796 44.5884 30.3443 44.5884C33.5304 44.5884 36.3928 44.8373 38.9317 45.3351C41.4706 45.7831 43.5614 46.4054 45.2043 47.2019C46.8968 47.9985 48.2907 48.9692 49.3859 50.1142C50.5309 51.2094 51.3274 52.3793 51.7755 53.6238C52.2733 54.8684 52.5222 56.1627 52.5222 57.5068C52.5222 58.4527 52.3729 59.3737 52.0742 60.2697C51.7755 61.116 51.2279 61.9872 50.4314 62.8833C49.6846 63.7296 48.5148 64.4265 46.9217 64.9741C45.3287 65.5217 43.4121 65.7955 41.1719 65.7955C37.8863 65.7955 35.7954 65.3226 34.8994 64.3768C34.0033 63.3811 33.5552 61.116 33.5552 57.5815Z" fill="#FF8788"/>
<path d="M108.544 53.9972V76.2498C108.544 83.518 106.777 88.7451 103.242 91.9311C99.7574 95.0674 93.8582 96.6355 85.5446 96.6355C77.6293 96.6355 71.8048 94.9429 68.0711 91.5578C64.3873 88.1726 62.5453 83.0699 62.5453 76.2498V53.9972C62.5453 51.3587 63.3169 49.2181 64.8602 47.5753C66.4532 45.8827 68.4445 45.0364 70.834 45.0364C73.7712 45.0364 75.9865 45.584 77.4799 46.6792C79.0232 47.7744 79.7948 49.9897 79.7948 53.3251V77.6686C79.8446 79.2616 80.0935 80.531 80.5415 81.4769C81.0394 82.4228 81.6865 83.0948 82.483 83.4931C83.2796 83.8415 84.3001 84.0158 85.5446 84.0158C86.7892 84.0158 87.8097 83.8664 88.6062 83.5677C89.4027 83.269 89.9752 82.7961 90.3237 82.149C90.722 81.5018 90.9709 80.8546 91.0704 80.2075C91.2198 79.5603 91.2945 78.714 91.2945 77.6686V53.2505C91.2945 51.5579 91.4936 50.1391 91.8919 48.9941C92.3399 47.8491 92.9871 47.0028 93.8334 46.4552C94.7294 45.9076 95.6255 45.5342 96.5216 45.3351C97.4675 45.136 98.5875 45.0364 99.8819 45.0364C102.769 45.0364 104.935 45.7334 106.378 47.1273C107.822 48.5212 108.544 50.8111 108.544 53.9972Z" fill="#FF8788"/>
<path d="M162.331 68.8571L152.997 87.9735C152.201 89.5665 151.354 90.7115 150.458 91.4084C149.562 92.0556 148.492 92.3792 147.247 92.3792C145.654 92.3792 144.31 91.8316 143.215 90.7364C142.12 89.5914 140.701 87.5503 138.959 84.6132L130.297 68.8571V89.9896C130.297 92.1303 129.799 93.6984 128.803 94.694C127.857 95.6897 126.414 96.1875 124.472 96.1875C122.282 96.1875 120.689 95.7146 119.693 94.7687C118.697 93.7731 118.2 91.8565 118.2 89.0189V56.4614C118.2 52.6282 119.071 49.7408 120.813 47.7993C122.555 45.8578 125.493 44.8871 129.625 44.8871C131.168 44.8871 132.512 45.1609 133.657 45.7085C134.802 46.2063 135.648 46.8037 136.196 47.5006C136.793 48.1478 137.366 48.9692 137.913 49.9648L147.919 71.8441L158.523 50.3382C160.365 46.7539 163.675 44.9617 168.455 44.9617C170.695 44.9617 172.611 45.36 174.204 46.1565C175.797 46.9032 177.042 48.1478 177.938 49.8902C178.884 51.5828 179.357 53.7234 179.357 56.3121V88.7949C179.307 93.7233 176.196 96.1875 170.023 96.1875C167.782 96.1875 165.941 95.5901 164.497 94.3953C163.103 93.1508 162.381 91.1595 162.331 88.4215V68.8571Z" fill="#FF8788"/>
<path d="M233.212 68.8571L223.878 87.9735C223.082 89.5665 222.235 90.7115 221.339 91.4084C220.443 92.0556 219.373 92.3792 218.128 92.3792C216.535 92.3792 215.191 91.8316 214.096 90.7364C213.001 89.5914 211.582 87.5503 209.84 84.6132L201.178 68.8571V89.9896C201.178 92.1303 200.68 93.6984 199.684 94.694C198.738 95.6897 197.295 96.1875 195.353 96.1875C193.163 96.1875 191.57 95.7146 190.574 94.7687C189.578 93.7731 189.081 91.8565 189.081 89.0189V56.4614C189.081 52.6282 189.952 49.7408 191.694 47.7993C193.437 45.8578 196.374 44.8871 200.506 44.8871C202.049 44.8871 203.393 45.1609 204.538 45.7085C205.683 46.2063 206.529 46.8037 207.077 47.5006C207.674 48.1478 208.247 48.9692 208.794 49.9648L218.801 71.8441L229.404 50.3382C231.246 46.7539 234.557 44.9617 239.336 44.9617C241.576 44.9617 243.492 45.36 245.085 46.1565C246.678 46.9032 247.923 48.1478 248.819 49.8902C249.765 51.5828 250.238 53.7234 250.238 56.3121V88.7949C250.188 93.7233 247.077 96.1875 240.904 96.1875C238.664 96.1875 236.822 95.5901 235.378 94.3953C233.984 93.1508 233.262 91.1595 233.212 88.4215V68.8571Z" fill="#FF8788"/>
<path d="M288.817 84.9865C288.817 89.0189 288.095 91.9062 286.652 93.6486C285.208 95.3412 282.993 96.1875 280.006 96.1875C277.118 96.1875 275.003 95.4159 273.658 93.8726C272.314 92.2796 271.617 89.4918 271.568 85.5092L271.493 73.4122L259.993 59.971C257.902 57.5815 256.857 55.5155 256.857 53.7732C256.857 51.0352 257.902 48.8696 259.993 47.2766C261.985 45.7831 263.752 45.0364 265.295 45.0364C267.436 45.0364 269.352 46.0072 271.045 47.9487L280.155 58.5523L287.772 49.6662C290.311 46.6294 293.024 45.1111 295.911 45.1111C298.052 45.1111 299.719 45.7085 300.914 46.9032C302.955 48.9443 303.976 50.9107 303.976 52.8024C303.976 53.8478 303.627 54.9679 302.93 56.1627C302.233 57.3077 301.113 58.8012 299.57 60.6431L288.817 73.7856V84.9865Z" fill="#FF8788"/>
</g>
<mask id="mask1" mask-type="alpha" maskUnits="userSpaceOnUse" x="0" y="75" width="308" height="50">
<path d="M0.513672 75.88H307.74V124.24H0.513672V75.88Z" fill="#FF8788"/>
</mask>
<g mask="url(#mask1)">
<path d="M33.0323 128.432C33.0323 126.341 32.2109 124.922 30.5681 124.176C28.9751 123.379 26.2868 122.981 22.5034 122.981V134.406C24.8431 134.406 26.7349 134.232 28.1785 133.883C29.672 133.535 30.8419 132.937 31.6882 132.091C32.5843 131.195 33.0323 129.975 33.0323 128.432ZM34.0031 148.37C34.0031 146.727 33.5799 145.458 32.7336 144.561C31.8873 143.665 30.6677 143.043 29.0746 142.695C27.4816 142.296 25.2912 142.097 22.5034 142.097V155.016C26.3864 155.016 29.2738 154.543 31.1655 153.597C33.0572 152.601 34.0031 150.859 34.0031 148.37ZM43.1878 138.588C47.8176 141.326 50.1324 144.985 50.1324 149.565C50.1324 151.556 49.7342 153.472 48.9377 155.314C48.1909 157.107 47.046 158.749 45.5027 160.243C44.0092 161.736 42.018 162.931 39.5289 163.827C37.0398 164.673 34.2271 165.097 31.0908 165.097H13.7666C10.7299 165.097 8.53952 164.325 7.19541 162.782C5.90107 161.238 5.25391 158.476 5.25391 154.493V122.906C5.25391 121.214 5.5526 119.72 6.14998 118.426C6.74737 117.132 7.69323 116.086 8.98756 115.29C10.3317 114.493 11.9247 114.095 13.7666 114.095H30.8668C35.845 114.145 39.9769 115.514 43.2625 118.202C46.5979 120.84 48.2656 124.25 48.2656 128.432C48.2656 129.776 48.1412 130.971 47.8923 132.016C47.6931 133.012 47.3695 133.908 46.9215 134.705C46.4735 135.501 45.9507 136.198 45.3534 136.795C44.756 137.393 44.0341 137.99 43.1878 138.588Z" fill="#FFA4A4"/>
<path d="M89.7389 134.854C92.3774 134.854 94.2193 135.277 95.2647 136.123C96.36 136.97 96.9076 138.413 96.9076 140.454C96.9076 142.147 96.2604 143.367 94.9661 144.113C93.7215 144.81 91.7551 145.159 89.0669 145.159H76.9698V153.074L93.1739 153.149C95.9617 153.149 97.953 153.572 99.1478 154.418C100.392 155.215 101.015 156.658 101.015 158.749C101.015 161.139 100.293 162.807 98.8491 163.752C97.4552 164.698 95.3145 165.171 92.4272 165.171H68.2331C65.2959 165.171 63.1304 164.4 61.7365 162.856C60.3924 161.263 59.7204 158.476 59.7204 154.493V122.981C59.7204 117.007 62.5579 114.02 68.2331 114.02H92.4272C95.3145 114.02 97.4552 114.468 98.8491 115.364C100.293 116.26 101.015 117.878 101.015 120.218C101.015 122.408 100.392 123.952 99.1478 124.848C97.953 125.694 95.9617 126.117 93.1739 126.117H76.8952V134.854H89.7389Z" fill="#FFA4A4"/>
<path d="M131.472 126.192C129.331 126.192 127.738 126.814 126.693 128.059C125.697 129.303 125.199 131.519 125.199 134.705V143.516H137.595V134.555C137.595 132.464 137.346 130.797 136.848 129.552C136.351 128.258 135.654 127.387 134.757 126.939C133.911 126.441 132.816 126.192 131.472 126.192ZM137.595 153.821H125.199V157.779C125.199 160.317 124.527 162.184 123.183 163.379C121.839 164.574 119.524 165.171 116.239 165.171C114.845 165.171 113.7 164.972 112.804 164.574C111.908 164.176 111.111 163.504 110.414 162.558C109.767 161.612 109.269 160.243 108.921 158.451C108.622 156.609 108.373 154.418 108.174 151.879C108.025 149.291 107.95 146.03 107.95 142.097C107.95 138.662 108.298 135.526 108.995 132.688C109.742 129.801 110.713 127.362 111.908 125.37C113.152 123.379 114.546 121.637 116.089 120.143C117.632 118.6 119.3 117.405 121.092 116.559C122.934 115.713 124.702 115.09 126.394 114.692C128.136 114.244 129.879 114.02 131.621 114.02C133.712 114.02 135.778 114.319 137.819 114.916C139.86 115.464 141.926 116.435 144.017 117.828C146.108 119.222 147.925 120.965 149.468 123.056C151.061 125.097 152.355 127.76 153.351 131.046C154.347 134.331 154.845 138.015 154.845 142.097C154.845 148.668 154.596 153.547 154.098 156.733C153.65 159.869 152.853 162.06 151.708 163.304C150.613 164.549 148.896 165.171 146.556 165.171C143.27 165.171 140.955 164.574 139.611 163.379C138.267 162.184 137.595 160.317 137.595 157.779V153.821Z" fill="#FFA4A4"/>
<path d="M191.055 128.88C191.055 126.491 190.183 124.848 188.441 123.952C186.699 123.056 183.762 122.608 179.63 122.608V135.526C183.513 135.526 186.375 135.053 188.217 134.107C190.109 133.112 191.055 131.369 191.055 128.88ZM179.63 153.97C179.63 161.438 176.717 165.171 170.893 165.171C167.956 165.171 165.79 164.4 164.396 162.856C163.052 161.263 162.38 158.476 162.38 154.493V122.981C162.38 120.094 163.152 117.903 164.695 116.41C166.288 114.866 168.354 114.095 170.893 114.095H186.574C192.697 114.095 197.651 115.539 201.434 118.426C205.218 121.263 207.109 124.922 207.109 129.403C207.109 132.788 206.387 135.451 204.944 137.393C203.55 139.285 201.285 140.678 198.149 141.575C200.538 141.724 202.753 142.894 204.794 145.084C206.835 147.225 207.856 149.913 207.856 153.149C207.856 156.434 207.532 158.973 206.885 160.766C206.288 162.508 205.417 163.678 204.272 164.275C203.127 164.873 201.509 165.171 199.418 165.171C196.481 165.171 194.315 164.574 192.921 163.379C191.577 162.135 190.905 160.268 190.905 157.779C190.905 154.692 190.607 152.327 190.009 150.685C189.412 148.992 188.64 147.897 187.694 147.399C186.748 146.901 185.429 146.652 183.737 146.652L179.63 146.727V153.97Z" fill="#FFA4A4"/>
<path d="M237.182 113.497C243.106 113.497 248.159 114.717 252.341 117.156C256.522 119.596 258.613 122.184 258.613 124.922C258.613 125.669 258.439 126.316 258.091 126.864C257.792 127.362 257.394 127.735 256.896 127.984C256.448 128.183 255.95 128.283 255.402 128.283C254.506 128.283 253.162 127.835 251.37 126.939C249.578 125.993 247.587 125.072 245.396 124.176C243.206 123.23 241.19 122.757 239.348 122.757C236.411 122.757 234.942 123.952 234.942 126.341C234.942 127.088 235.166 127.81 235.614 128.507C236.112 129.154 236.883 129.851 237.929 130.598C238.974 131.295 239.995 131.917 240.99 132.464C241.986 133.012 243.355 133.759 245.097 134.705C246.84 135.601 248.308 136.397 249.503 137.094C253.336 139.285 256.025 141.375 257.568 143.367C259.111 145.358 259.883 147.648 259.883 150.237C259.883 160.541 252.938 165.694 239.049 165.694C236.311 165.694 233.648 165.42 231.059 164.873C228.52 164.325 226.28 163.603 224.338 162.707C222.447 161.811 220.754 160.815 219.261 159.72C217.817 158.625 216.722 157.505 215.975 156.36C215.228 155.215 214.855 154.144 214.855 153.149C214.855 152.054 215.203 151.133 215.9 150.386C216.647 149.589 217.717 149.191 219.111 149.191C220.157 149.191 222.671 149.863 226.653 151.207C230.636 152.502 233.847 153.149 236.286 153.149C238.526 153.149 239.646 152.377 239.646 150.834C239.646 150.386 239.547 149.988 239.348 149.639C239.198 149.241 238.9 148.868 238.452 148.519C238.053 148.121 237.58 147.772 237.033 147.474C236.535 147.125 235.813 146.702 234.867 146.204C233.971 145.706 233.05 145.209 232.104 144.711C231.208 144.213 230.014 143.566 228.52 142.769C227.027 141.973 225.583 141.176 224.189 140.38C222.347 139.334 220.754 138.04 219.41 136.497C218.116 134.954 217.17 133.435 216.572 131.942C215.975 130.398 215.676 128.98 215.676 127.685C215.676 123.504 217.543 120.094 221.277 117.455C225.01 114.817 230.312 113.497 237.182 113.497Z" fill="#FFA4A4"/>
</g>
<path d="M50.547 57.2057C49.0898 58.4758 45.8954 57.1958 43.4123 54.3467C40.9291 51.4975 40.0975 48.1583 41.5547 46.8882C43.012 45.6181 46.2064 46.8982 48.6895 49.7473C51.1727 52.5964 52.0043 55.9357 50.547 57.2057Z" fill="white"/>
<path d="M300.702 51.4987C299.244 52.7688 296.886 52.4479 295.434 50.7819C293.982 49.1159 293.986 46.7358 295.443 45.4657C296.901 44.1956 299.259 44.5166 300.711 46.1825C302.163 47.8485 302.159 50.2287 300.702 51.4987Z" fill="white"/>
<path d="M102.765 86.0545C103.776 87.746 102.015 90.6584 98.832 92.5596C95.6492 94.4608 92.25 94.6308 91.2396 92.9394C90.2292 91.2479 91.9903 88.3355 95.173 86.4343C98.3558 84.5331 101.755 84.363 102.765 86.0545Z" fill="#F33A41"/>
<path d="M105.842 51.4987C104.385 52.7688 102.026 52.4479 100.574 50.7819C99.1225 49.1159 99.1268 46.7358 100.584 45.4657C102.041 44.1956 104.4 44.5166 105.852 46.1825C107.304 47.8485 107.299 50.2287 105.842 51.4987Z" fill="white"/>
<path d="M176.246 51.4987C174.789 52.7688 172.431 52.4479 170.979 50.7819C169.527 49.1159 169.531 46.7358 170.988 45.4657C172.446 44.1956 174.804 44.5166 176.256 46.1825C177.708 47.8485 177.704 50.2287 176.246 51.4987Z" fill="white"/>
<path d="M247.364 51.4987C245.906 52.7688 243.548 52.4479 242.096 50.7819C240.644 49.1159 240.648 46.7358 242.106 45.4657C243.563 44.1956 245.921 44.5166 247.373 46.1825C248.825 47.8485 248.821 50.2287 247.364 51.4987Z" fill="white"/>
<path d="M146.916 130.053C145.459 131.323 141.649 129.337 138.407 125.618C135.165 121.898 133.719 117.853 135.176 116.583C136.633 115.313 140.443 117.299 143.685 121.018C146.926 124.738 148.373 128.783 146.916 130.053Z" fill="white"/>
<path d="M203.353 130.053C201.896 131.323 198.087 129.337 194.845 125.618C191.603 121.898 190.156 117.853 191.613 116.583C193.071 115.313 196.88 117.299 200.122 121.018C203.364 124.738 204.811 128.783 203.353 130.053Z" fill="white"/>
<path d="M253.944 126.9C252.486 128.171 249.292 126.89 246.809 124.041C244.326 121.192 243.494 117.853 244.951 116.583C246.408 115.313 249.603 116.593 252.086 119.442C254.569 122.291 255.401 125.63 253.944 126.9Z" fill="white"/>
<path d="M44.1467 126.9C42.6894 128.171 39.4951 126.89 37.0119 124.041C34.5287 121.192 33.6971 117.853 35.1544 116.583C36.6116 115.313 39.806 116.593 42.2891 119.442C44.7723 122.291 45.6039 125.63 44.1467 126.9Z" fill="white"/>
<path d="M95.8851 121.194C94.4279 122.464 92.0695 122.143 90.6175 120.477C89.1655 118.811 89.1698 116.431 90.627 115.161C92.0843 113.891 94.4427 114.212 95.8947 115.877C97.3467 117.543 97.3424 119.924 95.8851 121.194Z" fill="white"/>
<path d="M13.2595 26H23.6895V9.27002H30.7595V0.660024H6.18945V9.27002H13.2595V26Z" fill="white"/>
<path d="M33.473 26H43.903V16.76H49.153V26H59.583V0.660024H49.153V8.50002H43.903V0.660024H33.473V26Z" fill="white"/>
<path d="M62.6625 26H81.3875V17.95H73.0925V16.515H79.3925V10.495H73.0925V9.13002H80.8975V0.660024H62.6625V26Z" fill="white"/>
<path d="M94.4838 26H112.754V17.005H104.914V0.660024H94.4838V26Z" fill="white"/>
<path d="M115.47 26H134.195V17.95H125.9V16.515H132.2V10.495H125.9V9.13002H133.705V0.660024H115.47V26Z" fill="white"/>
<path d="M150.291 26.385C154.456 26.385 157.746 25.23 159.601 24.075V11.545H149.241V17.215H151.761V18.51C151.551 18.58 151.201 18.65 150.711 18.65C148.156 18.65 145.811 16.865 145.811 13.89C145.811 11.16 147.736 9.06002 151.446 9.06002C153.791 9.06002 156.941 9.90003 158.971 10.775V2.09502C156.976 1.08002 153.896 0.275024 150.536 0.275024C141.681 0.275024 135.416 5.91002 135.416 13.54C135.416 20.82 141.156 26.385 150.291 26.385Z" fill="white"/>
<path d="M162.536 26H181.261V17.95H172.966V16.515H179.266V10.495H172.966V9.13002H180.771V0.660024H162.536V26Z" fill="white"/>
<path d="M183.864 26H193.244V15.22L193.314 15.185L200.769 26H210.254V0.660024H200.874V11.44L200.804 11.475L193.349 0.660024H183.864V26Z" fill="white"/>
<path d="M224.002 26C228.797 26 232.612 24.53 235.237 22.01C237.512 19.84 238.842 16.83 238.842 13.33C238.842 9.65503 237.407 6.75002 235.167 4.61502C232.612 2.16502 228.832 0.660024 223.932 0.660024H213.327V26H224.002ZM223.757 8.92002H224.072C225.997 8.92002 227.187 9.51503 227.922 10.285C228.622 11.02 229.077 12.07 229.077 13.33C229.077 14.555 228.622 15.57 227.922 16.305C227.082 17.18 225.752 17.74 224.002 17.74H223.757V8.92002Z" fill="white"/>
<path d="M237.631 26H247.991L248.971 22.675H254.781L255.656 26H266.926L257.266 0.660024H247.291L237.631 26ZM250.791 16.305L251.911 11.16H251.981L253.101 16.305H250.791Z" fill="white"/>
<path d="M268.663 26H279.093V17.6H279.163C280.178 22.64 284.343 26.385 290.328 26.385C292.953 26.385 295.508 25.58 297.048 24.565V15.325C295.403 16.55 293.443 17.145 291.763 17.145C289.628 17.145 288.578 16.095 288.263 14.73C290.083 13.4 291.203 11.405 291.203 8.60502C291.203 2.02502 284.133 0.660024 278.883 0.660024H268.663V26ZM279.093 11.86V7.97502H279.863C281.473 7.97502 282.243 8.81502 282.243 9.90002C282.243 10.985 281.508 11.86 279.863 11.86H279.093Z" fill="white"/>
<path d="M300.389 26H310.819V14.975L320.059 0.660024H308.684L305.779 6.43502H305.709L302.839 0.660024H291.079L300.389 15.29V26Z" fill="white"/>
</svg>
